<?xml version="1.0" encoding="utf-8"?>
<!-- Generator: Adobe Illustrator 19.2.1, SVG Export Plug-In . SVG Version: 6.00 Build 0)  -->
<svg version="1.1" id="Layer_1" xmlns="http://www.w3.org/2000/svg" xmlns:xlink="http://www.w3.org/1999/xlink" x="0px" y="0px"
	 width="768px" height="69px" viewBox="0 0 768 69" style="enable-background:new 0 0 768 69;" xml:space="preserve">
<style type="text/css">
	.st0{fill:#606870;}
	.st1{fill:#333339;}
	.st2{fill:#F5F5F5;}
	.st3{fill:#21842E;}
	.st4{fill:#4F9040;}
	.st5{fill:#DDE4D5;}
	.st6{fill:#00872F;}
	.st7{fill:#F0F8F3;}
	.st8{fill:none;stroke:#21842E;stroke-width:8;stroke-miterlimit:10;}
	.st9{fill:none;stroke:#333339;stroke-width:8;stroke-miterlimit:10;}
	.st10{fill:#FFFFFF;}
	.st11{fill:#4B4A67;}
	.st12{fill:none;stroke:#000000;stroke-miterlimit:10;}
	.st13{fill:#006837;}
	.st14{fill:none;}
	.st15{fill:#39B54A;}
	.st16{fill:#009245;}
	.st17{fill:#8CC63F;}
	.st18{fill:#999999;}
	.st19{fill:#2E9C54;}
	.st20{fill:#5C5D67;}
</style>
<path class="st1" d="M43.7,7.6c2.4,2.5,4.2,5.4,5.5,8.9c1.3,3.5,2,7.3,2,11.5c0,3.4-0.4,6.5-1.3,9.3c-0.9,2.9-2.1,5.4-3.7,7.7
	c-1.5,2.2-3.3,4-5.4,5.6c-2.1,1.6-4.5,2.9-7.1,3.8c0.1,2.8,1,5.2,3,7.4c1.9,2.2,4,3.3,6.2,3.3c2.1,0,3.6-0.1,4.7-0.2
	c1.1-0.1,2-0.3,2.7-0.4v3c-1.1,0.3-2.5,0.7-4.2,1c-1.7,0.4-4,0.5-7,0.5c-1.7,0-3.3-0.2-4.9-0.7S31,67,29.7,65.9
	c-1.3-1.1-2.4-2.4-3.2-4.1c-0.9-1.7-1.4-3.7-1.7-6.1c-3.6-0.1-6.9-0.9-9.9-2.3C11.8,52,9.2,50.1,7,47.6c-2.2-2.5-3.9-5.4-5.1-8.7
	C0.6,35.6,0,31.9,0,28c0-4.3,0.7-8.2,2-11.6c1.4-3.4,3.2-6.3,5.6-8.8C10,5.1,12.7,3.3,15.8,2c3.1-1.3,6.4-2,9.8-2
	c3.5,0,6.9,0.7,10,2C38.7,3.3,41.4,5.2,43.7,7.6z M38.1,45.3c1.4-2.3,2.4-4.9,3.1-7.7c0.6-2.9,1-6.1,1-9.6c0-3.7-0.4-7-1.1-10.1
	c-0.7-3.1-1.8-5.7-3.1-7.8c-1.4-2.1-3.1-3.8-5.2-5c-2.1-1.2-4.5-1.8-7.1-1.8c-3,0-5.6,0.7-7.7,2.1c-2.1,1.4-3.8,3.2-5.1,5.5
	c-1.3,2.2-2.2,4.8-2.8,7.7c-0.6,3-0.9,6.1-0.9,9.3c0,3.6,0.3,6.9,1,9.8c0.7,2.9,1.7,5.5,3.1,7.7c1.4,2.2,3.1,3.9,5.1,5.2
	s4.5,1.9,7.4,1.9c2.7,0,5.1-0.6,7.2-1.9C35,49.3,36.7,47.6,38.1,45.3z"/>
<path class="st1" d="M81.1,54.5h-24v-2.7c0.7-0.1,1.7-0.1,2.9-0.2c1.3-0.1,2.2-0.2,2.7-0.5c0.8-0.3,1.4-0.8,1.8-1.3
	c0.4-0.6,0.6-1.3,0.6-2.3V8.9c0-0.9-0.1-1.6-0.4-2.2c-0.3-0.6-0.9-1.1-2-1.5C62,5,61.1,4.7,59.9,4.4c-1.1-0.3-2.1-0.4-2.8-0.5V1.3
	h24v2.7c-0.8,0-1.7,0.1-2.8,0.3c-1.1,0.2-2,0.4-2.8,0.6c-1,0.3-1.6,0.8-1.9,1.5s-0.5,1.4-0.5,2.3v38.5c0,0.8,0.2,1.6,0.5,2.2
	c0.4,0.6,1,1.1,1.9,1.5c0.5,0.2,1.4,0.4,2.6,0.7c1.2,0.2,2.2,0.4,3,0.4V54.5z"/>
<path class="st1" d="M111.2,55.8c-3.2,0-6.2-0.6-9.1-1.9c-2.9-1.3-5.5-3.1-7.7-5.4c-2.2-2.4-4-5.2-5.3-8.6c-1.3-3.4-2-7.2-2-11.5
	s0.6-8.1,1.9-11.6c1.3-3.5,3.1-6.5,5.4-9c2.3-2.5,5-4.4,8.1-5.7c3.1-1.4,6.4-2,9.9-2c2.6,0,5,0.3,7.1,1c2.1,0.7,4.1,1.6,6.1,2.7
	l1.5-2.6h3l0.3,19h-3.1c-0.4-1.9-1-3.9-1.8-6c-0.8-2.2-1.7-4-2.8-5.5c-1.2-1.7-2.6-3-4.3-4c-1.6-1-3.5-1.4-5.7-1.4
	c-2.4,0-4.7,0.5-6.8,1.6c-2.1,1.1-3.9,2.7-5.4,4.8c-1.4,2-2.6,4.6-3.4,7.7C96.4,20.6,96,24,96,27.9c0,3.4,0.4,6.5,1.3,9.4
	c0.9,2.8,2.1,5.3,3.7,7.5c1.6,2.1,3.5,3.8,5.7,5c2.2,1.2,4.6,1.8,7.3,1.8c2,0,3.9-0.3,5.6-1c1.7-0.6,3.2-1.5,4.4-2.5
	c1.2-1.1,2.3-2.4,3.3-3.8c1-1.4,1.7-2.9,2.3-4.6l2.8,1.4c-2.1,5.3-5,9-8.5,11.3C120.4,54.7,116.1,55.8,111.2,55.8z"/>
<path class="st1" d="M234.1,3.9c-0.6,0-1.4,0.2-2.2,0.4c-0.8,0.3-1.6,0.6-2.3,1c-0.9,0.6-1.6,1.2-2.1,1.9s-1,1.7-1.4,3
	c-1.8,5.8-3.8,12.5-6.2,20.2c-2.4,7.7-4.9,15.9-7.6,24.7h-3.5l-13.4-41l-14,41h-3.3c-2.5-8.8-5-17.8-7.7-27.3
	c-2.7-9.4-4.4-15.7-5.3-18.9c-0.2-0.8-0.6-1.5-1-2.1s-1-1.2-1.8-1.7c-0.6-0.4-1.4-0.7-2.2-1c-0.8-0.2-1.6-0.3-2.3-0.4V1.3h21.7v2.7
	c-1.9,0.1-3.5,0.3-4.9,0.6c-1.3,0.3-2,0.7-2,1.4c0,0.3,0,0.6,0.1,1c0.1,0.4,0.1,0.7,0.2,1c0.6,2.2,1.6,5.8,3.1,10.9
	c1.5,5.1,3.6,12.7,6.5,22.8L195.9,2h3.7l13.4,40.4c1.8-6.2,3.4-11.6,4.7-16.3c1.3-4.6,2.4-8.6,3.2-11.9c0.6-2.3,1-3.9,1.1-4.8
	c0.2-0.9,0.2-1.6,0.2-2.2c0-0.9-0.6-1.6-1.7-2.1c-1.2-0.6-3-1-5.6-1.2V1.3h19.3V3.9z"/>
<path class="st1" d="M287.7,28.2c0,4.5-0.9,8.5-2.6,11.8c-1.7,3.3-3.9,6.1-6.6,8.2c-2.8,2.1-5.8,3.7-9.3,4.8
	c-3.4,1.1-7,1.6-10.6,1.6h-22.1v-2.7c0.7,0,1.7-0.1,2.8-0.2c1.2-0.1,1.9-0.3,2.3-0.5c0.8-0.3,1.3-0.8,1.6-1.4
	c0.3-0.6,0.5-1.4,0.5-2.3V9c0-0.9-0.1-1.6-0.4-2.3c-0.3-0.7-0.9-1.2-1.7-1.6c-0.8-0.4-1.6-0.7-2.5-0.8c-0.9-0.2-1.7-0.3-2.3-0.3V1.3
	h23.3c3.2,0,6.4,0.5,9.5,1.5c3.1,1,5.8,2.3,8.1,4c3.1,2.2,5.6,5.1,7.4,8.7S287.7,23.3,287.7,28.2z M278.5,28.2
	c0-3.6-0.5-6.8-1.4-9.7c-1-2.9-2.3-5.4-4.2-7.6c-1.7-2-3.8-3.7-6.4-4.8c-2.5-1.2-5.3-1.8-8.4-1.8c-1,0-2.2,0-3.5,0.1
	c-1.3,0-2.2,0.1-2.9,0.1v40.9c0,2.3,0.7,3.8,2,4.7c1.3,0.9,3.4,1.3,6.1,1.3c3.2,0,6-0.6,8.3-1.7c2.4-1.1,4.3-2.7,5.8-4.7
	c1.6-2.1,2.7-4.5,3.4-7.3C278.1,35,278.5,31.8,278.5,28.2z"/>
<rect fill="currentColor" x="141.1" y="20.6" class="st6" width="13.9" height="13.9"/>
<g>
	<g>
		<path class="st1" d="M315.4,23l-0.4,0c-2.8,0-5.1-0.9-7-2.8c-1.9-1.8-2.8-4.1-2.8-6.9c0-2.7,0.9-5,2.8-6.9c1.9-1.8,4.2-2.8,7-2.8
			s5.1,0.9,7,2.8s2.8,4.1,2.8,6.8c0,2.1-0.6,3.9-1.7,5.5c-1.1,1.6-2.6,2.8-4.5,3.5c0.6,0.8,1.4,1.2,2.3,1.2c0.7,0,1.3-0.2,2-0.5
			c0.6-0.4,1.1-0.8,1.5-1.4l1.8,2.5c-1.5,1.6-3.3,2.4-5.3,2.4c-1.1,0-2.2-0.3-3.3-1C316.6,25,315.9,24.1,315.4,23z M319.7,8.6
			c-1.3-1.3-2.8-2-4.7-2c-1.8,0-3.4,0.7-4.7,2c-1.3,1.3-1.9,2.9-1.9,4.8s0.6,3.5,1.9,4.8c1.3,1.3,2.8,2,4.7,2c1.8,0,3.4-0.7,4.7-2
			c1.3-1.3,1.9-2.9,1.9-4.8S321,10,319.7,8.6z"/>
		<path class="st1" d="M333,18.6c0.9,1,2,1.5,3.5,1.5c1.5,0,2.6-0.5,3.5-1.5c0.9-1,1.3-2.3,1.3-4V4.3h3.1v10.4
			c0,2.7-0.7,4.7-2.2,6.2c-1.5,1.4-3.4,2.2-5.7,2.2c-2.3,0-4.2-0.7-5.7-2.2c-1.5-1.4-2.2-3.5-2.2-6.2V4.3h3.1v10.3
			C331.7,16.2,332.1,17.6,333,18.6z"/>
		<path class="st1" d="M351.4,18.6l-1.9,4.2h-3.3l8.2-18.6h3.3l8.2,18.6h-3.3l-1.9-4.2H351.4z M359.4,15.7L356,8.1l-3.4,7.7H359.4z"
			/>
		<path class="st1" d="M368.5,22.8V4.3h3.1v15.6h8.5v3H368.5z"/>
		<path class="st1" d="M383.5,4.3h3.1v18.6h-3.1V4.3z"/>
		<path class="st1" d="M398.8,7.1v15.7h-3.1V7.1h-5.6V4.3h14.4v2.9H398.8z"/>
		<path class="st1" d="M415.2,22.8H412v-7.3l-6.9-11.2h3.4l5.1,8.5l5.1-8.5h3.4l-6.9,11.2V22.8z"/>
		<path class="st1" d="M431.8,4.3h3.1v18.6h-3.1V4.3z"/>
		<path class="st1" d="M443.2,22.8h-3.1V4.3h4.9l5.6,11.7l5.6-11.7h4.9v18.6h-3.1V8.3l-6.5,12.9h-1.8l-6.5-12.9V22.8z"/>
		<path class="st1" d="M478.7,5.9c1.3,1.1,1.9,2.7,1.9,5s-0.7,3.9-2,4.9c-1.3,1-3.3,1.6-6.1,1.6h-3.3v5.5h-3.1V4.3h6.4
			C475.4,4.3,477.4,4.8,478.7,5.9z M476.5,13.5c0.6-0.7,0.9-1.6,0.9-2.9c0-1.3-0.4-2.2-1.2-2.7c-0.8-0.5-2-0.8-3.7-0.8h-3.2v7.4h3.6
			C474.7,14.5,475.9,14.2,476.5,13.5z"/>
		<path class="st1" d="M499.2,10.3c0,3.1-1.3,5-4,5.8l4.9,6.8h-4l-4.4-6.2h-4.1v6.2h-3.1V4.3h6.9c2.8,0,4.9,0.5,6.1,1.4
			C498.6,6.6,499.2,8.2,499.2,10.3z M495,12.9c0.6-0.5,1-1.4,1-2.6c0-1.2-0.3-2-1-2.5c-0.7-0.5-1.8-0.7-3.5-0.7h-4v6.6h3.9
			C493.2,13.7,494.4,13.5,495,12.9z"/>
		<path class="st1" d="M519.3,20.3c-1.9,1.8-4.2,2.8-7,2.8c-2.8,0-5.1-0.9-7-2.8c-1.9-1.8-2.8-4.1-2.8-6.9c0-2.7,0.9-5,2.8-6.9
			c1.9-1.8,4.2-2.8,7-2.8c2.8,0,5.1,0.9,7,2.8c1.9,1.8,2.8,4.1,2.8,6.9C522.1,16.2,521.2,18.4,519.3,20.3z M517,8.6
			c-1.3-1.3-2.8-2-4.7-2c-1.8,0-3.4,0.7-4.7,2c-1.3,1.3-1.9,2.9-1.9,4.8s0.6,3.5,1.9,4.8c1.3,1.3,2.8,2,4.7,2c1.8,0,3.4-0.7,4.7-2
			c1.3-1.3,1.9-2.9,1.9-4.8S518.3,10,517,8.6z"/>
		<path class="st1" d="M534.2,22.8h-3.5l-7.5-18.6h3.5l5.7,13.9l5.7-13.9h3.5L534.2,22.8z"/>
		<path class="st1" d="M557.4,4.3v3h-9.9v4.9h8.9v2.8h-8.9v5h10.2v3h-13.4V4.3H557.4z"/>
		<path class="st1" d="M564.9,22.8h-3.1V4.3h4.9l5.6,11.7l5.6-11.7h4.9v18.6h-3.1V8.3l-6.5,12.9h-1.8l-6.5-12.9V22.8z"/>
		<path class="st1" d="M600.9,4.3v3H591v4.9h8.9v2.8H591v5h10.2v3h-13.4V4.3H600.9z"/>
		<path class="st1" d="M619.2,4.3h3.1v18.6h-3.4L608.4,9.3v13.6h-3.1V4.3h3.1l10.8,13.9V4.3z"/>
		<path class="st1" d="M634.5,7.1v15.7h-3.1V7.1h-5.6V4.3h14.4v2.9H634.5z"/>
		<path class="st1" d="M659.3,20c1.1,0,2-0.2,2.8-0.5c0.8-0.4,1.6-0.9,2.4-1.7l2,2.1c-2,2.2-4.4,3.3-7.2,3.3s-5.1-0.9-7-2.7
			s-2.8-4.1-2.8-6.9s0.9-5.1,2.8-6.9c1.9-1.8,4.3-2.8,7.2-2.8c2.9,0,5.3,1.1,7.2,3.2l-2,2.2c-0.9-0.9-1.7-1.4-2.5-1.8
			c-0.8-0.3-1.7-0.5-2.8-0.5c-1.9,0-3.5,0.6-4.7,1.8s-1.9,2.8-1.9,4.7s0.6,3.5,1.9,4.7C656.1,19.4,657.6,20,659.3,20z"/>
		<path class="st1" d="M683.5,4.3v3h-9.9v4.9h8.9v2.8h-8.9v5h10.2v3h-13.4V4.3H683.5z"/>
		<path class="st1" d="M701.7,4.3h3.1v18.6h-3.4L690.9,9.3v13.6h-3.1V4.3h3.1l10.8,13.9V4.3z"/>
		<path class="st1" d="M717,7.1v15.7h-3.1V7.1h-5.6V4.3h14.4v2.9H717z"/>
		<path class="st1" d="M739.1,4.3v3h-9.9v4.9h8.9v2.8h-8.9v5h10.2v3h-13.4V4.3H739.1z"/>
		<path class="st1" d="M758.3,10.3c0,3.1-1.3,5-4,5.8l4.9,6.8h-4l-4.4-6.2h-4.1v6.2h-3.1V4.3h6.9c2.8,0,4.9,0.5,6.1,1.4
			C757.7,6.6,758.3,8.2,758.3,10.3z M754.1,12.9c0.6-0.5,1-1.4,1-2.6c0-1.2-0.3-2-1-2.5c-0.7-0.5-1.8-0.7-3.5-0.7h-4v6.6h3.9
			C752.3,13.7,753.5,13.5,754.1,12.9z"/>
	</g>
	<g>
		<path class="st1" d="M308.4,36.8v5.1h8.2v2.9h-8.2v7.7h-3.1V33.9h12.4l0,2.9H308.4z"/>
		<path class="st1" d="M336.9,49.9c-1.9,1.8-4.2,2.8-7,2.8s-5.1-0.9-7-2.8c-1.9-1.8-2.8-4.1-2.8-6.9c0-2.7,0.9-5,2.8-6.9
			c1.9-1.8,4.2-2.8,7-2.8s5.1,0.9,7,2.8c1.9,1.8,2.8,4.1,2.8,6.9C339.7,45.8,338.7,48.1,336.9,49.9z M334.6,38.3
			c-1.3-1.3-2.8-2-4.7-2c-1.8,0-3.4,0.7-4.7,2c-1.3,1.3-1.9,2.9-1.9,4.8c0,1.9,0.6,3.5,1.9,4.8c1.3,1.3,2.8,2,4.7,2
			c1.8,0,3.4-0.7,4.7-2c1.3-1.3,1.9-2.9,1.9-4.8C336.5,41.2,335.8,39.6,334.6,38.3z"/>
		<path class="st1" d="M358.5,39.9c0,3.1-1.3,5-4,5.8l4.9,6.8h-4l-4.4-6.2h-4.1v6.2h-3.1V33.9h6.9c2.8,0,4.9,0.5,6.1,1.4
			C357.9,36.3,358.5,37.8,358.5,39.9z M354.3,42.5c0.6-0.5,1-1.4,1-2.6c0-1.2-0.3-2-1-2.5c-0.7-0.5-1.8-0.7-3.5-0.7h-4v6.6h3.9
			C352.5,43.4,353.7,43.1,354.3,42.5z"/>
		<path class="st1" d="M376.1,47.2l4.1-13.4h2.8l4.1,13.4l4.7-13.4h3.4l-6.5,18.6h-3.1l-3.9-12.7h-0.2l-3.9,12.7h-3.1L368,33.9h3.4
			L376.1,47.2z"/>
		<path class="st1" d="M413.5,49.9c-1.9,1.8-4.2,2.8-7,2.8s-5.1-0.9-7-2.8c-1.9-1.8-2.8-4.1-2.8-6.9c0-2.7,0.9-5,2.8-6.9
			c1.9-1.8,4.2-2.8,7-2.8s5.1,0.9,7,2.8c1.9,1.8,2.8,4.1,2.8,6.9C416.3,45.8,415.4,48.1,413.5,49.9z M411.2,38.3
			c-1.3-1.3-2.8-2-4.7-2s-3.4,0.7-4.7,2c-1.3,1.3-1.9,2.9-1.9,4.8c0,1.9,0.6,3.5,1.9,4.8c1.3,1.3,2.8,2,4.7,2s3.4-0.7,4.7-2
			c1.3-1.3,1.9-2.9,1.9-4.8C413.1,41.2,412.5,39.6,411.2,38.3z"/>
		<path class="st1" d="M435.1,39.9c0,3.1-1.3,5-4,5.8l4.9,6.8h-4l-4.4-6.2h-4.1v6.2h-3.1V33.9h6.9c2.8,0,4.9,0.5,6.1,1.4
			C434.5,36.3,435.1,37.8,435.1,39.9z M431,42.5c0.6-0.5,1-1.4,1-2.6c0-1.2-0.3-2-1-2.5s-1.8-0.7-3.5-0.7h-4v6.6h3.9
			C429.1,43.4,430.3,43.1,431,42.5z"/>
		<path class="st1" d="M439.7,33.9h3.1v9.1l8.5-9.1h4l-7.5,8.1l7.6,10.4h-3.7l-6.2-8.1l-2.7,2.9v5.2h-3.1V33.9z"/>
		<path class="st1" d="M461.5,36.8v5.1h8.2v2.9h-8.2v7.7h-3.1V33.9h12.4l0,2.9H461.5z"/>
		<path class="st1" d="M490,49.9c-1.9,1.8-4.2,2.8-7,2.8s-5.1-0.9-7-2.8c-1.9-1.8-2.8-4.1-2.8-6.9c0-2.7,0.9-5,2.8-6.9
			c1.9-1.8,4.2-2.8,7-2.8s5.1,0.9,7,2.8c1.9,1.8,2.8,4.1,2.8,6.9C492.8,45.8,491.9,48.1,490,49.9z M487.7,38.3c-1.3-1.3-2.8-2-4.7-2
			s-3.4,0.7-4.7,2c-1.3,1.3-1.9,2.9-1.9,4.8c0,1.9,0.6,3.5,1.9,4.8c1.3,1.3,2.8,2,4.7,2s3.4-0.7,4.7-2c1.3-1.3,1.9-2.9,1.9-4.8
			C489.6,41.2,489,39.6,487.7,38.3z"/>
		<path class="st1" d="M511.6,39.9c0,3.1-1.3,5-4,5.8l4.9,6.8h-4l-4.4-6.2h-4.1v6.2h-3.1V33.9h6.9c2.8,0,4.9,0.5,6.1,1.4
			C511,36.3,511.6,37.8,511.6,39.9z M507.4,42.5c0.6-0.5,1-1.4,1-2.6c0-1.2-0.3-2-1-2.5c-0.7-0.5-1.8-0.7-3.5-0.7h-4v6.6h3.9
			C505.6,43.4,506.8,43.1,507.4,42.5z"/>
		<path class="st1" d="M524.6,49.6c1.1,0,2-0.2,2.8-0.5c0.8-0.4,1.6-0.9,2.4-1.7l2,2.1c-2,2.2-4.4,3.3-7.2,3.3c-2.8,0-5.1-0.9-7-2.7
			c-1.9-1.8-2.8-4.1-2.8-6.9c0-2.8,0.9-5.1,2.8-6.9c1.9-1.8,4.3-2.8,7.2-2.8c2.9,0,5.3,1.1,7.2,3.2l-2,2.2c-0.9-0.9-1.7-1.4-2.5-1.8
			c-0.8-0.3-1.7-0.5-2.8-0.5c-1.9,0-3.5,0.6-4.7,1.8c-1.3,1.2-1.9,2.8-1.9,4.7s0.6,3.5,1.9,4.7C521.4,49,522.9,49.6,524.6,49.6z"/>
		<path class="st1" d="M548.7,33.9v3h-9.9v4.9h8.9v2.8h-8.9v5h10.2v3h-13.4V33.9H548.7z"/>
		<path class="st1" d="M574.4,36.3c1.8,1.6,2.7,3.9,2.7,6.8c0,2.9-0.9,5.2-2.6,6.9c-1.7,1.7-4.4,2.5-8,2.5h-6.2V33.9h6.4
			C570.1,33.9,572.6,34.7,574.4,36.3z M574,43.2c0-4.3-2.4-6.4-7.3-6.4h-3.1v12.7h3.5c2.3,0,4-0.5,5.2-1.6
			C573.4,46.8,574,45.2,574,43.2z"/>
		<path class="st1" d="M594.2,33.9v3h-9.9v4.9h8.9v2.8h-8.9v5h10.2v3h-13.4V33.9H594.2z"/>
		<path class="st1" d="M607,52.5h-3.5L596,33.9h3.5l5.7,13.9l5.7-13.9h3.5L607,52.5z"/>
		<path class="st1" d="M630.2,33.9v3h-9.9v4.9h8.9v2.8h-8.9v5h10.2v3h-13.4V33.9H630.2z"/>
		<path class="st1" d="M634.5,52.5V33.9h3.1v15.6h8.5v3H634.5z"/>
		<path class="st1" d="M664.6,49.9c-1.9,1.8-4.2,2.8-7,2.8s-5.1-0.9-7-2.8c-1.9-1.8-2.8-4.1-2.8-6.9c0-2.7,0.9-5,2.8-6.9
			c1.9-1.8,4.2-2.8,7-2.8s5.1,0.9,7,2.8c1.9,1.8,2.8,4.1,2.8,6.9C667.4,45.8,666.5,48.1,664.6,49.9z M662.3,38.3
			c-1.3-1.3-2.8-2-4.7-2s-3.4,0.7-4.7,2c-1.3,1.3-1.9,2.9-1.9,4.8c0,1.9,0.6,3.5,1.9,4.8c1.3,1.3,2.8,2,4.7,2s3.4-0.7,4.7-2
			c1.3-1.3,1.9-2.9,1.9-4.8C664.2,41.2,663.6,39.6,662.3,38.3z"/>
		<path class="st1" d="M683.9,35.5c1.3,1.1,1.9,2.7,1.9,5c0,2.3-0.7,3.9-2,4.9c-1.3,1-3.3,1.6-6.1,1.6h-3.3v5.5h-3.1V33.9h6.4
			C680.6,33.9,682.7,34.4,683.9,35.5z M681.7,43.2c0.6-0.7,0.9-1.6,0.9-2.9c0-1.3-0.4-2.2-1.2-2.7c-0.8-0.5-2-0.8-3.7-0.8h-3.2v7.4
			h3.6C679.9,44.2,681.1,43.8,681.7,43.2z"/>
		<path class="st1" d="M692.7,52.5h-3.1V33.9h4.9l5.6,11.7l5.6-11.7h4.9v18.6h-3.1V37.9l-6.5,12.9h-1.8l-6.5-12.9V52.5z"/>
		<path class="st1" d="M728.8,33.9v3h-9.9v4.9h8.9v2.8h-8.9v5h10.2v3h-13.4V33.9H728.8z"/>
		<path class="st1" d="M747,33.9h3.1v18.6h-3.4l-10.5-13.6v13.6h-3.1V33.9h3.1L747,47.8V33.9z"/>
		<path class="st1" d="M762.4,36.7v15.7h-3.1V36.7h-5.6v-2.9H768v2.9H762.4z"/>
	</g>
</g>
</svg>
